# xmcd
#
# Track frame offsets:
#	150
#	15455
#	34331
#	56781
#	69678
#	87071
#	99498
#	113907
#	132521
#	154822
#	168363
#	184381
#	198451
#	212159
#	224501
# Disc length: 3160 seconds
# Revision: 7
# Processed by: cddbd v1.5.2PL0 Copyright (c) Steve Scherf et al.
#
# Submitted via: libkcddb 0.31
#
DISCID=e00c560f
DTITLE=Various Artist - House of Blues - Essential Blues 2 [CD2).log
DYEAR=1996
DGENRE=Blues
TTITLE0=Freddie King - Going Down
TTITLE1=Albert Collins - I Ain't Drunk
TTITLE2=Robert Cray - These Things
TTITLE3=Elmore James - Shake Your Moneymaker
TTITLE4=Magic Sam - All Of Your Love
TTITLE5=James Cotton - High Compression
TTITLE6=Sonny Boy Williamson - Help Me
TTITLE7=Willie Dixon - I Ain't Superstitious
TTITLE8=Koko Taylor - Wang Dang Doodle
TTITLE9=Otis Rush - I Can't Quit You Baby
TTITLE10=Muddy Waters - I Can't Be Satisfied
TTITLE11=Slim Harpo - I'm A King Bee
TTITLE12=Amos Milburn - Down the Road Apiece
TTITLE13=Earl Hooker - Blue Guitar
TTITLE14=B.B. King - Everyday I Have The Blues
EXTD=
EXTT0=Freddie King
EXTT1=Albert Collins
EXTT2=Robert Cray
EXTT3=Elmore James
EXTT4=Magic Sam
EXTT5=James Cotton
EXTT6=Sonny Boy Williamson
EXTT7=Willie Dixon
EXTT8=Koko Taylor
EXTT9=Otis Rush
EXTT10=Muddy Waters
EXTT11=Slim Harpo
EXTT12=Amos Milburn
EXTT13=Earl Hooker
EXTT14=B.B. King
PLAYORDER=
